<svg xmlns="http://www.w3.org/2000/svg" xmlns:xlink="http://www.w3.org/1999/xlink" viewBox="0 0 4680 3120"><defs><style>.cls-1{fill:none;}.cls-2{isolation:isolate;}.cls-3,.cls-85{fill:#fff;}.cls-4{fill:url(#linear-gradient);}.cls-5{fill:url(#linear-gradient-2);}.cls-6{fill:#8dc1ff;opacity:0.62;}.cls-28,.cls-33,.cls-39,.cls-6,.cls-77,.cls-82{mix-blend-mode:multiply;}.cls-14,.cls-7,.cls-9{fill:#0e2d34;}.cls-10,.cls-11,.cls-12,.cls-13,.cls-14,.cls-7,.cls-8,.cls-85,.cls-9{fill-rule:evenodd;}.cls-8{fill:#1b7154;}.cls-70,.cls-9{opacity:0.7;}.cls-10{fill:url(#linear-gradient-3);}.cls-11{fill:#5f9850;}.cls-12{fill:url(#linear-gradient-4);}.cls-13{fill:url(#linear-gradient-5);}.cls-14{opacity:0.4;}.cls-15{fill:#f24959;}.cls-16{fill:#cc273f;}.cls-17,.cls-24{mix-blend-mode:darken;}.cls-17{fill:url(#linear-gradient-6);}.cls-18{fill:#2489ed;}.cls-19{fill:#3ea3ff;}.cls-20{fill:url(#linear-gradient-7);}.cls-21{fill:#205fce;}.cls-22{fill:#b72137;}.cls-23{fill:#dd3750;}.cls-24{fill:url(#linear-gradient-8);}.cls-25{fill:#d83545;}.cls-26{fill:#2f77e0;}.cls-27{fill:url(#linear-gradient-9);}.cls-28{fill:#d4d4d4;}.cls-28,.cls-33,.cls-66{opacity:0.55;}.cls-29{fill:#06378e;}.cls-30{fill:#1052b2;}.cls-31{fill:url(#linear-gradient-10);}.cls-32{fill:url(#linear-gradient-11);}.cls-33{fill:#bbbcbb;}.cls-34,.cls-67{mix-blend-mode:screen;}.cls-34{fill:url(#linear-gradient-12);}.cls-35{fill:#2a2b2b;}.cls-36{fill:#444;}.cls-37{fill:#ebf6ff;}.cls-38{fill:#e9f2f4;}.cls-39{fill:#e5e5e5;}.cls-40{fill:url(#linear-gradient-13);}.cls-41{fill:url(#linear-gradient-14);}.cls-42{fill:url(#linear-gradient-15);}.cls-43{fill:#6b9ce8;}.cls-44{fill:#88b9ff;}.cls-45{fill:#3f93e8;}.cls-46{fill:#60a4f4;}.cls-47{fill:#fafbfc;}.cls-48{fill:#0d6099;}.cls-49{fill:#1b73bc;}.cls-50{fill:url(#linear-gradient-16);}.cls-51{fill:url(#linear-gradient-17);}.cls-52{fill:#7399bf;}.cls-53{fill:#263238;}.cls-54,.cls-62{fill:#1b2428;}.cls-55{fill:#f4ab8c;}.cls-56{fill:#fabb9b;}.cls-57{fill:#043172;}.cls-58,.cls-65{opacity:0.64;}.cls-58{fill:url(#linear-gradient-18);}.cls-59{fill:url(#linear-gradient-19);}.cls-60{fill:#ff344a;}.cls-61,.cls-70{fill:#e51f3b;}.cls-62{opacity:0.8;}.cls-63{fill:url(#linear-gradient-20);}.cls-64{fill:#efa78b;}.cls-65{fill:url(#linear-gradient-21);}.cls-66{fill:url(#linear-gradient-22);}.cls-67{fill:url(#linear-gradient-23);}.cls-68{fill:#101110;}.cls-69{fill:#2a2b2a;opacity:0.99;}.cls-71{fill:url(#linear-gradient-24);}.cls-72{fill:url(#linear-gradient-25);}.cls-73{fill:#ff806d;}.cls-74{fill:#fca286;}.cls-75{fill:#352d29;}.cls-76{fill:#11191c;}.cls-77{opacity:0.55;}.cls-78{clip-path:url(#clip-path);}.cls-79{fill:#f7576e;}.cls-80{fill:#e04444;}.cls-81{fill:#fbfbfb;}.cls-82{fill:#ccecff;}.cls-83{fill:#fbb035;}.cls-84{fill:#f5f5f5;}.cls-86{fill:#ce0c35;}.cls-87{fill:#ee4041;}.cls-88{mix-blend-mode:color-burn;fill:url(#Degradado_sin_nombre_6);}</style><linearGradient id="linear-gradient" x1="2307.82" y1="2686.02" x2="2307.82" y2="2404.18" gradientUnits="userSpaceOnUse"><stop offset="0" stop-color="#fff" stop-opacity="0.6"/><stop offset="0.12" stop-color="#f0f3fc" stop-opacity="0.59"/><stop offset="0.32" stop-color="#c8d4f4" stop-opacity="0.56"/><stop offset="0.57" stop-color="#87a1e8" stop-opacity="0.51"/><stop offset="0.87" stop-color="#2e5ad7" stop-opacity="0.44"/><stop offset="1" stop-color="#0036ce" stop-opacity="0.4"/></linearGradient><linearGradient id="linear-gradient-2" x1="2264.04" y1="545.84" x2="2374.51" y2="2418.95" gradientUnits="userSpaceOnUse"><stop offset="0" stop-color="#fff"/><stop offset="0.19" stop-color="#d3effa"/><stop offset="0.47" stop-color="#98daf3"/><stop offset="0.71" stop-color="#6ccaed"/><stop offset="0.89" stop-color="#52c1ea"/><stop offset="1" stop-color="#48bde9"/></linearGradient><linearGradient id="linear-gradient-3" x1="-1855.99" y1="2048.26" x2="-1551.09" y2="2942.64" gradientTransform="translate(5881.88 -755.93) rotate(14.32)" gradientUnits="userSpaceOnUse"><stop offset="0" stop-color="#8ccc6d"/><stop offset="0.19" stop-color="#81c768"/><stop offset="0.54" stop-color="#62b85b"/><stop offset="0.92" stop-color="#39a54a"/></linearGradient><linearGradient id="linear-gradient-4" x1="378.22" y1="5139.83" x2="652.01" y2="5942.95" gradientTransform="translate(8406.98 -1825.7) rotate(58.55)" xlink:href="#linear-gradient-3"/><linearGradient id="linear-gradient-5" x1="-1611.28" y1="2249.53" x2="-1429.22" y2="2917.11" gradientTransform="translate(5881.88 -755.93) rotate(14.32)" gradientUnits="userSpaceOnUse"><stop offset="0" stop-color="#00b488"/><stop offset="0.92" stop-color="#007bc0"/></linearGradient><linearGradient id="linear-gradient-6" x1="3921.85" y1="2377.52" x2="3509.59" y2="1935.02" gradientUnits="userSpaceOnUse"><stop offset="0" stop-color="#f45b5b"/><stop offset="1" stop-color="#f42432"/></linearGradient><linearGradient id="linear-gradient-7" x1="725.62" y1="2259.83" x2="1179.36" y2="2259.83" gradientUnits="userSpaceOnUse"><stop offset="0" stop-color="#2d76f9"/><stop offset="0" stop-color="#2d76f9"/><stop offset="0.44" stop-color="#3c9df0"/><stop offset="0.78" stop-color="#45b4eb"/><stop offset="1" stop-color="#48bde9"/></linearGradient><linearGradient id="linear-gradient-8" x1="1020.51" y1="2320.23" x2="1307.02" y2="2320.23" xlink:href="#linear-gradient-6"/><linearGradient id="linear-gradient-9" x1="2342.8" y1="1995.23" x2="2356.24" y2="1087.89" xlink:href="#linear-gradient-7"/><linearGradient id="linear-gradient-10" x1="1777.11" y1="1319.89" x2="1904.45" y2="2381.07" xlink:href="#linear-gradient-7"/><linearGradient id="linear-gradient-11" x1="2754.48" y1="1187.34" x2="2879.78" y2="2231.47" xlink:href="#linear-gradient-7"/><linearGradient id="linear-gradient-12" x1="1946.37" y1="1835.95" x2="2599.67" y2="880.44" gradientUnits="userSpaceOnUse"><stop offset="0.28" stop-color="#172652" stop-opacity="0.6"/><stop offset="0.45" stop-color="#162754" stop-opacity="0.61"/><stop offset="0.59" stop-color="#142c5b" stop-opacity="0.65"/><stop offset="0.71" stop-color="#136" stop-opacity="0.71"/><stop offset="0.82" stop-color="#0c3d77" stop-opacity="0.79"/><stop offset="0.92" stop-color="#064a8b" stop-opacity="0.9"/><stop offset="1" stop-color="#00579f"/></linearGradient><linearGradient id="linear-gradient-13" x1="2296.63" y1="1282.32" x2="2873.56" y2="1282.32" gradientUnits="userSpaceOnUse"><stop offset="0" stop-color="#2d76f9"/><stop offset="0.3" stop-color="#378af3"/><stop offset="0.73" stop-color="#43a2ec"/><stop offset="1" stop-color="#48abe9"/></linearGradient><linearGradient id="linear-gradient-14" x1="2803.46" y1="1908.37" x2="2500.89" y2="1605.8" xlink:href="#linear-gradient-13"/><linearGradient id="linear-gradient-15" x1="2287.11" y1="1710.56" x2="2912.92" y2="1710.56" xlink:href="#linear-gradient-13"/><linearGradient id="linear-gradient-16" x1="2401.3" y1="1750.06" x2="2326.36" y2="1680.31" gradientUnits="userSpaceOnUse"><stop offset="0" stop-color="#f87a5b"/><stop offset="1" stop-color="#ff344a"/></linearGradient><linearGradient id="linear-gradient-17" x1="2333.18" y1="1710.48" x2="2375.27" y2="1710.48" xlink:href="#linear-gradient-16"/><linearGradient id="linear-gradient-18" x1="1565.07" y1="1650.98" x2="1777.61" y2="1650.98" gradientUnits="userSpaceOnUse"><stop offset="0" stop-color="#172652" stop-opacity="0.5"/><stop offset="1" stop-color="#17263f"/></linearGradient><linearGradient id="linear-gradient-19" x1="1389.7" y1="1383.14" x2="1806.03" y2="1383.14" xlink:href="#linear-gradient-16"/><linearGradient id="linear-gradient-20" x1="1331.79" y1="1730.56" x2="1530.08" y2="1730.56" xlink:href="#linear-gradient-18"/><linearGradient id="linear-gradient-21" x1="1363.79" y1="1939.3" x2="1826.56" y2="1939.3" xlink:href="#linear-gradient-18"/><linearGradient id="linear-gradient-22" x1="1619.61" y1="1632.24" x2="1964.9" y2="1632.24" xlink:href="#linear-gradient-18"/><linearGradient id="linear-gradient-23" x1="1651.54" y1="964.63" x2="1508.36" y2="1137.91" xlink:href="#linear-gradient-12"/><linearGradient id="linear-gradient-24" x1="1707.12" y1="964.92" x2="1715.2" y2="964.92" xlink:href="#linear-gradient-16"/><linearGradient id="linear-gradient-25" x1="1271.77" y1="987.27" x2="1279.85" y2="987.27" gradientTransform="matrix(0.62, 0.03, -0.05, 0.96, 952.87, -19.27)" xlink:href="#linear-gradient-16"/><clipPath id="clip-path"><polygon class="cls-1" points="1751.86 891.32 2049.56 872.47 2049.56 672.4 1751.86 691.25 1751.86 891.32"/></clipPath><linearGradient id="Degradado_sin_nombre_6" x1="4859.55" y1="1577.72" x2="5039.31" y2="1365.65" gradientTransform="matrix(-0.81, 0, 0, 1.06, 4911.57, -44.7)" gradientUnits="userSpaceOnUse"><stop offset="0"/><stop offset="1" stop-color="#fff" stop-opacity="0"/></linearGradient></defs><title>08</title><g class="cls-2"><g id="_08" data-name="08"><rect class="cls-3" width="4680" height="3120"/><path class="cls-4" d="M4077.59,2660v-48.13c0-78.5-281.92-142.15-629.69-142.15H1167.75c-347.77,0-629.69,63.65-629.69,142.15V2660Z"/><path class="cls-5" d="M3689.18,1170.71C3558.19,953.64,3324,808.57,3056,808.57c-72.55,0-142.36,11.71-209.06,30.79C2687.89,580.42,2406.34,460,2084.28,460c-437.57,0-802.55,266.75-883.38,689.49-13.07-.88-25.91-2.46-39.37-2.46-371.48,0-672.78,307.8-672.78,686.78,0,379.46,301.3,687.16,672.78,687.16H3518.14c371.77,0,673.11-307.7,673.11-687.16C4191.25,1515,3978.28,1247.59,3689.18,1170.71Z"/><path class="cls-6" d="M3581,2522.26c-92,0-173,5.51-219.45,13.83-187.17-22-700.85-37.83-1305.24-37.83-762.65,0-1380.9,25.18-1380.9,56.23s618.25,56.23,1380.9,56.23c620.57,0,1145.51-16.67,1319.58-39.61,47.8,7,121.91,11.51,205.11,11.51,144.18,0,261.06-13.51,261.06-30.18S3725.15,2522.26,3581,2522.26Z"/><path class="cls-7" d="M3532.17,1795.66c-75.16-19.06-180.16-59.07-278.37-142.9-139.16-118.78,169.93-55.45,416.69,52.19l-105.88,78.75Z"/><path class="cls-8" d="M3267.88,1456.62c36.31,59.56,139,186.39,236.16,318.23l121.31,89.27,48.8-75.81c-53.94-178-138.66-368.28-227.78-477.61C3290,1118.89,3140.47,1247.63,3267.88,1456.62Z"/><path class="cls-9" d="M3627.76,1860.37c-89-290.88-329.48-571.51-330.35-572.54a4.4,4.4,0,0,0-6.54-.27,5.25,5.25,0,0,0-.34,7c.86,1,237.45,277.19,326.91,563.71l7.91,5.82Z"/><path class="cls-10" d="M3733.19,1136c6.4,72.7.74,238.06.38,410.61-37.46,60.21-55.36,229.21-120.75,252.44-57.3-178.26-135.43-500.14-129.34-645.76C3495.4,868.29,3708.83,859.26,3733.19,1136Z"/><path class="cls-11" d="M3646,1638.07c-69-293.19-47.82-620-47.73-621.32a5.58,5.58,0,0,1,5.51-5.38,5.15,5.15,0,0,1,4.84,5.67c-.07,1.36-21,324.35,46.51,614.51C3652.14,1633.77,3649.11,1636,3646,1638.07Z"/><path class="cls-12" d="M4090.34,1511.79c-41.42,50.78-148.66,153.62-257,264.4-61.82,15.26-179.21,112.78-235.83,86.75,74.81-150.57,226.19-406.59,321.33-496.46C4105.09,1190.58,4248.05,1318.48,4090.34,1511.79Z"/><path class="cls-11" d="M3719.75,1780.17c139.29-231.84,357.62-428.8,358.53-429.62a5,5,0,0,1,6.92,0,4.63,4.63,0,0,1-.45,6.68c-.89.83-216.69,195.52-355,424.47C3726.38,1781.24,3723.06,1780.74,3719.75,1780.17Z"/><path class="cls-13" d="M3700.82,1286.13c-16.92,67.66-62.35,351.16-88,512.94l48.77,27.7,88.26-18.46c88.91-163.4,164.9-357.31,180.2-497.52C3956.88,1064.8,3760.2,1048.67,3700.82,1286.13Z"/><path class="cls-14" d="M3666,1825.86c144.63-267.62,175.68-635.86,175.8-637.21a4.42,4.42,0,0,0-4.41-4.85,5.25,5.25,0,0,0-5.24,4.71c-.12,1.33-30.69,363.69-171.93,628.55l1.41,9.71Z"/><path class="cls-15" d="M3916.05,1804.25l-5,28.61-62.33,707.86h-3.36c-15.82,11-86.4,19.26-171.08,19.26-35.58,0-68.68-1.46-96.27-4-8.17-.76-15.85-1.57-23-2.48-34-4.38-55.23-10.59-55.23-17.48,0-1.61,1.2-3.18,3.36-4.7l-74.14-727.3Z"/><path class="cls-16" d="M3946.81,1804.79v18.74c0,7.94-9.52,14.37-21.28,14.37H3397v-33.11c0-19.09,22.94-34.59,51.23-34.59h447.39C3923.87,1770.2,3946.81,1785.7,3946.81,1804.79Z"/><path class="cls-17" d="M3946.81,1803.25v18.06c0,7.66-9.52,13.85-21.28,13.85h-5.72l-5,27.57s-336,402-359.89,687.48v0c-34-4.22-55.23-10.21-55.23-16.85,0-1.55,1.2-3.07,3.36-4.53l-74-693.7H3397v-31.91c0-18.4,22.94-33.34,51.23-33.34h447.39C3923.87,1769.91,3946.81,1784.85,3946.81,1803.25Z"/><path class="cls-18" d="M780.72,1981.48a105.06,105.06,0,0,1,2.45-11.37,172.94,172.94,0,0,1,8.93-25.69c11-24.53,28.07-46.42,51.89-59.57,30.1-16.62,70.1-18.8,101.7-5.07,25.76,11.19,45,32.53,58.12,56.92,7.48,13.93,13.59,28.62,16.7,44.78,1.69,8.77,15.09,5.06,13.41-3.7-2.78-14.4-8.46-28.59-14.84-41.71-12.75-26.19-32.12-50-58-64.14-33-18.09-75.54-19.56-110.35-5.56-29.08,11.7-51.69,34.27-66.19,61.81-8,15.24-14.77,32.44-17.28,49.6-.54,3.74.93,7.42,4.86,8.55,3.26.94,8-1.14,8.55-4.85Z"/><path class="cls-19" d="M832.68,1979.63c-.55,4.15.12-.47.3-1.45.51-2.83,1.12-5.64,1.79-8.44a183.1,183.1,0,0,1,8.59-26.65c9.41-22.94,25.36-45.68,47.67-58.8,27.13-16,63.77-18.13,92.19-4.2,23.95,11.73,40.86,33.18,52.41,56.72,6.65,13.55,12.43,29.09,15.18,44.67,1.55,8.79,15,5.06,13.4-3.7-2.51-14.23-7.66-28.21-13.49-41.36-11.47-25.89-29.11-50.12-53.81-64.73-30.54-18.07-69.93-18.93-102.17-4.86-27.17,11.85-47.38,35.36-60,61.7-7.67,16-13.59,33.42-16,51.1-.5,3.75,3.56,6.91,7,6.95,4.17,0,6.46-3.25,6.95-6.95Z"/><path class="cls-20" d="M1179.36,2556.92H725.62l28.67-594.19h365.86c8.66,0,15.82,7.78,16.34,17.74l34.09,458.38Z"/><path class="cls-21" d="M754.29,1962.73H710.56c-9.9,0-18.17,8.74-19,20.13l-44.38,574.06h78.5Z"/><path class="cls-22" d="M983.17,2162.76c4.36-28.17,22.67-56,48-69.19,23.1-12.08,53.14-13.37,77.27-3.61,19.12,7.74,33.95,23,44,40.69,5.65,9.95,10.38,20.79,12.69,32.11,1.38,6.76,11.73,3.9,10.35-2.86-6.32-30.93-27.42-61.94-55.62-76.43-25.31-13-57.41-14-83.87-3.77-21.49,8.31-38.68,24.2-49.88,44.22-6.14,10.95-11.34,23.48-13.28,36-1.05,6.76,9.29,9.67,10.35,2.86Z"/><path class="cls-15" d="M1314.3,2576.11H937.85l23.78-426.92h303.54a13.57,13.57,0,0,1,13.56,12.75L1307,2491.28Z"/><path class="cls-23" d="M961.63,2149.19H925.35a15.87,15.87,0,0,0-15.81,14.46l-36.82,412.46h65.13Z"/><path class="cls-24" d="M1307,2491.28c-173.77-60.84-256.54-252.55-286.51-342.09h244.66a13.57,13.57,0,0,1,13.56,12.75Z"/><path class="cls-25" d="M1014.56,2162.76c4.36-28.17,22.67-56,48-69.19,23.1-12.08,53.14-13.37,77.27-3.61,19.12,7.74,34,23,44,40.69,5.65,9.95,10.38,20.79,12.69,32.11,1.38,6.76,11.72,3.9,10.35-2.86-6.32-30.93-27.42-61.94-55.63-76.43-25.31-13-57.4-14-83.86-3.77-21.49,8.31-38.68,24.2-49.88,44.22-6.14,10.95-11.35,23.48-13.28,36-1.05,6.76,9.29,9.67,10.35,2.86Z"/><path class="cls-26" d="M3430.49,1957.49H1296.08L1424.22,1446c6.29-61.69,32.3-115.42,70-152.73,34.67-34.34,79.23-54.8,127.43-54.8H3089.86c96.89,0,179.69,82.86,196,196.15Z"/><path class="cls-27" d="M3390.64,1957.49H1296.09L1362,1694.26l62.2-248.3c5.17-50.76,23.7-96.11,51.09-131.38a218.71,218.71,0,0,1,18.9-21.36c28.29-18.22,60.65-28.51,94.83-28.51H3057.26c96.9,0,179.7,82.83,196,196.12Z"/><path class="cls-28" d="M3421.42,1671.85s-164.32,59.86-229.19,185.94H1533.94s-44.11-176.54-198.1-174.35v308.15h2103Z"/><rect class="cls-29" x="1325.94" y="2423.73" width="2112.86" height="141.13" rx="64.01"/><path class="cls-21" d="M3662.37,1859.79c-7.71,47.78-12.76,100.25-18.89,154.74-12.67,112.77-29.91,234.23-84.78,340.86C3520,2430.73,3455.8,2474,3388.45,2474h-2049c-67.36,0-131.5-43.27-170.26-118.61-63.93-124.24-77.6-268.63-92-395.93-3.92-34.75-7.9-68.23-13-99.67-19.34-119.81-8-233.07,81.75-233.07H1193c84.31,0,164.15,54.3,213.73,147.57,35.48,66.79,53,153,53,153L2363.93,1947l845.52-18.37,58.64-1.28s5.26-25.87,15.85-60.24c8.73-28.39,21.12-62.58,37.16-92.79,20.33-38.23,45.73-69.92,74.45-94,41.33-34.66,89.53-53.57,139.28-53.57h47.08c54.05,0,79.2,41.11,86.41,100C3673.09,1765.58,3670.05,1812.17,3662.37,1859.79Z"/><path class="cls-29" d="M3336.77,2212.67H1390.94c-27.18,0-49.21-30.14-49.21-67.31h0c0-117.7,69.76-213.11,155.81-213.11H3246.07c77.27,0,139.91,85.68,139.91,191.37v21.74C3386,2182.53,3364,2212.67,3336.77,2212.67Z"/><path class="cls-21" d="M1443.87,1923s7.37-349.48-211.29-352.84-174.43,238.59-174.43,238.59Z"/><path class="cls-21" d="M3666,1808.79l-303.77,90.28-80.64,24s-.47-22.42,2.37-56c8.38-98.7,45.51-293.71,208.07-296.86h.84c133-2,168.27,86.69,175.47,156.51A317.55,317.55,0,0,1,3666,1808.79Z"/><path class="cls-30" d="M1367.45,1797.13c4.51,40.72,4.12,74.65,1.1,103.89-11.54,111.53-61.42,154.76-23.78,246.29l174.77-196.12,1.76-20.64-58.64-1.28s-5.25-25.87-15.85-60.24c-8.38-98.71-45.51-293.71-208.07-296.86,29,18.88,68.41,53,96.46,110.07C1350.45,1713.31,1362.35,1751.18,1367.45,1797.13Z"/><path class="cls-31" d="M2355.45,1985.83v129.06c0,32.49-19.25,58.82-43,58.82H1417.08c-23.76,0-43-26.33-43-58.82,0-42.08,4.79-80.91,15.54-112.23a175.69,175.69,0,0,1,8.53-20.63c16.77-34,43-55,81-55h833.35c20,0,36.86,18.73,41.64,44.08A79.37,79.37,0,0,1,2355.45,1985.83Z"/><path class="cls-30" d="M3366.86,1797.13c-4.51,40.72-4.12,74.65-1.1,103.89,11.54,111.53,61.42,154.76,23.78,246.29l-174.77-196.12-1.77-20.64,58.65-1.28s5.25-25.87,15.85-60.24c8.38-98.71,45.51-293.71,208.06-296.86-29,18.88-68.4,53-96.45,110.07C3383.86,1713.31,3372,1751.18,3366.86,1797.13Z"/><path class="cls-32" d="M3356.64,2114.89c0,16.24-4.81,31-12.6,41.6s-18.52,17.22-30.39,17.22H2415.26c-23.74,0-43-26.33-43-58.82V1985.83a79.37,79.37,0,0,1,1.36-14.74c4.78-25.35,21.62-44.08,41.64-44.08h833.35c59.7,0,92.33,52.07,103.53,124.81A416.29,416.29,0,0,1,3356.64,2114.89Z"/><path class="cls-30" d="M3643.48,2014.53c-12.67,112.77-29.91,234.23-84.78,340.86C3520,2430.73,3455.8,2474,3388.45,2474h-2049c-67.36,0-131.5-43.27-170.26-118.61-63.93-124.24-77.6-268.63-92-395.93,2.53,11.51,5.12,24.4,7.76,38.8,71.39,388.68,149,409.69,214.18,434.2s1995.9-7,2129.37-42,214.18-381.67,214.18-381.67Z"/><path class="cls-28" d="M3349,2059.15c-1.63-2.11-3.82-6.12-6.65-12.28-40.55-88.2-158.05-73.08-158.05-73.08H2369.13c4.79-26.81,21.65-46.61,41.7-46.61h834.51C3305.12,1927.18,3337.8,1982.23,3349,2059.15Z"/><path class="cls-28" d="M2356.83,1974.59H2027.59s-6.35,79.16-9.51,100.75-57,93.56-79.22,97.15-25.34-64.77-25.34-64.77-6.34-158.32-199.61-93.56c-154.68,51.84-281,11.49-325.2-6.7a187,187,0,0,1,8.55-21.48c16.84-35.39,43.19-57.29,81.27-57.29H2315C2335.14,1928.69,2352,1948.19,2356.83,1974.59Z"/><path class="cls-33" d="M1647.19,1708.21l-176.31-3.59L1340,1650.28l70.91-258.54c5.89-52.85,27-100.07,58.24-136.79L1604,1366.38Z"/><path class="cls-34" d="M2311.87,606.41l-921.19,211S926.51,1954,1806.52,2313.79c873.56,357.17,1297.3-340,1297.3-340L2879.66,642.9a46,46,0,0,0-45.75-39.23Z"/><rect class="cls-35" x="2243.57" y="583.92" width="784.43" height="1349.57" rx="61.39"/><rect class="cls-36" x="2189.64" y="583.92" width="784.43" height="1349.57" rx="61.39"/><rect class="cls-36" x="2999.06" y="750.05" width="22.06" height="204.82" rx="11.03"/><rect class="cls-36" x="2999.06" y="977.63" width="22.06" height="204.82" rx="11.03"/><path class="cls-3" d="M2919.6,605.56a34.73,34.73,0,0,1,34.72,34.73V1850.17c0,29.12-25.66,52.94-57,52.94H2266.43c-31.37,0-57-23.82-57-52.94V658.51c0-29.12,25.66-53,57-53Z"/><path class="cls-37" d="M2954.32,640.51V800.78L2209.4,1474.91V1208.64l667.84-603.08h42.14A34.94,34.94,0,0,1,2954.32,640.51Z"/><polygon class="cls-37" points="2209.4 1583.85 2954.32 935.65 2954.32 1084.7 2209.4 1758.51 2209.4 1583.85"/><path class="cls-37" d="M2954.32,1488.76v361.41c0,29.11-25.67,52.94-57,52.94H2488.45Z"/><polygon class="cls-37" points="2706.77 605.56 2209.4 1032.01 2209.4 927.38 2619.77 605.56 2706.77 605.56"/><path class="cls-36" d="M2301.18,601l24.19,47.62c3.94,7.75,12.34,12.69,21.57,12.69H2806.5c10.67,0,20.05-6.58,22.95-16.11l13.48-44.2Z"/><line class="cls-38" x1="2404.91" y1="700.64" x2="2404.91" y2="766.8"/><rect class="cls-39" x="2285.3" y="783.53" width="576.93" height="576.93" rx="40.59"/><rect class="cls-3" x="2296.63" y="773.6" width="576.93" height="576.93" rx="40.59"/><path class="cls-40" d="M2873.56,1214.11v103.5c0,18.11-18.27,32.92-40.59,32.92H2337.22c-22.33,0-40.59-14.81-40.59-32.92v-103.5Z"/><path class="cls-41" d="M2884.8,1636.57c19.53,0,35.36,16.44,35.36,36.72v79.9c0,20.4-19.81,37.09-44,37.09H2338.39c-24.22,0-44-16.69-44-37.09v-77.43c0-21.64,16.89-39.19,37.73-39.19Z"/><path class="cls-42" d="M2875.19,1636.57a37.73,37.73,0,0,1,37.73,37.73v74.54c0,19.64-19.82,35.71-44,35.71H2331.14c-24.21,0-44-16.07-44-35.71V1674.3a37.74,37.74,0,0,1,37.74-37.73Z"/><circle class="cls-43" cx="2323.67" cy="1477.06" r="27.04"/><rect class="cls-44" x="2371.44" y="1464.8" width="502.12" height="23.96" rx="11.53"/><circle class="cls-43" cx="2323.67" cy="1544.57" r="27.04"/><rect class="cls-44" x="2371.44" y="1532.3" width="502.12" height="23.96" rx="11.53"/><path class="cls-45" d="M2684.38,934a11.45,11.45,0,0,1-6.28,4.32c-6,1.64-13.31-2-14.68-8.34a58.77,58.77,0,0,0-2.56-8.08c-.2-.52-.42-1-.62-1.58,0,0,0,0,0,0-.76-1.62-1.49-3.23-2.3-4.82a93.59,93.59,0,0,0-6-10.15c-.58-.86-1.17-1.68-1.77-2.52l-.4-.57h0l-.15-.16c-1.26-1.48-2.47-3-3.78-4.44a92.31,92.31,0,0,0-10.17-9.5h0l-.21-.15c-.4-.27-.78-.56-1.18-.85-.94-.67-1.89-1.32-2.86-1.94-2.13-1.4-4.34-2.7-6.61-3.91q-2.11-1.12-4.3-2.15-.89-.42-1.8-.81l-.07,0c-2.62-1-5.3-2-8-2.81-13.29-4-25-5-39.3-4.11a79.9,79.9,0,0,0-17.39,2.72,92.22,92.22,0,0,0-8.89,2.75c-.41.15-2.12.84-2.37.92h0c-1.1.48-2.19,1-3.25,1.51a83,83,0,0,0-12,7.32.05.05,0,0,0-.05,0h0c-.23.21-2,1.61-2.35,1.9-.81.7-1.6,1.4-2.39,2.13-1.61,1.51-3.17,3.08-4.65,4.72-1.14,1.23-2.22,2.51-3.26,3.81h0s0,0,0,0l0,0h0c-.21.29-1.07,1.42-1.35,1.82-.52.75-1.05,1.51-1.56,2.28a94,94,0,0,0-5.67,9.89c-.5,1-2.45,5.79-1.47,3.14-.43,1.08-.88,2.15-1.28,3.25-.88,2.39-1.65,4.8-2.33,7.25-.48,1.75-.94,3.54-1.26,5.35-.08.39-.14.79-.2,1.18a8.06,8.06,0,0,1-1,2.91c-2.52,4.51-9,6.72-13.67,5.43-6.76-1.86-9.26-8.32-8.33-14.68.12-.89.27-1.76.44-2.65,2-10.34,6.67-20.67,11.94-29.55a95.75,95.75,0,0,1,50.31-41.24c26.87-9.66,60-8.79,86.45,1.92A102.8,102.8,0,0,1,2674.91,897c5,8.08,9.48,17.34,11.52,26.67A12.88,12.88,0,0,1,2684.38,934Z"/><path class="cls-46" d="M2540.41,886.45l.32-.14Z"/><path class="cls-46" d="M2633.32,896.9h0C2632.06,895.88,2635.36,898.28,2633.32,896.9Z"/><path class="cls-46" d="M2647.43,911l0,0a4.5,4.5,0,0,1-.27-.41C2647.21,910.61,2647.94,911.6,2647.43,911Z"/><path class="cls-46" d="M2658.31,929.81s-.14-.26-.37-.74l-.05-.1-.12-.31C2657.32,927.42,2658.34,929.74,2658.31,929.81Z"/><path class="cls-46" d="M2684.38,934a11.45,11.45,0,0,1-6.28,4.32c-6,1.64-13.31-2-14.68-8.34a58.77,58.77,0,0,0-2.56-8.08c-.2-.52-.42-1-.62-1.58,0,0,0,0,0,0-.76-1.62-1.49-3.23-2.3-4.82a93.59,93.59,0,0,0-6-10.15c-.58-.86-1.17-1.68-1.77-2.52l-.4-.57h0l-.15-.16c-1.26-1.48-2.47-3-3.78-4.44a92.31,92.31,0,0,0-10.17-9.5h0l-.21-.15c-.4-.27-.78-.56-1.18-.85-.94-.67-1.89-1.32-2.86-1.94-2.13-1.4-4.34-2.7-6.61-3.91q-2.11-1.12-4.3-2.15-.89-.42-1.8-.81l-.07,0c-2.62-1-5.3-2-8-2.81-13.29-4-25-5-39.3-4.11a79.9,79.9,0,0,0-17.39,2.72,92.22,92.22,0,0,0-8.89,2.75c-.41.15-2.12.84-2.37.92h0c-1.1.48-2.19,1-3.25,1.51a83,83,0,0,0-12,7.32s0,0,0,0c-.23.21-2,1.61-2.35,1.9-.81.7-1.6,1.4-2.39,2.13-1.61,1.51-3.17,3.08-4.65,4.72-1.14,1.23-2.22,2.51-3.26,3.81h0s0,0,0,0l0,0h0c-.21.29-1.07,1.42-1.35,1.82-.52.75-1.05,1.51-1.56,2.28a94,94,0,0,0-5.67,9.89c-.5,1-2.45,5.79-1.47,3.14-.43,1.08-.88,2.15-1.28,3.25-.88,2.39-1.65,4.8-2.33,7.25-.48,1.75-.94,3.54-1.26,5.35-.37,1.14-.71,2.29-1,3.44l-.18.65a53.55,53.55,0,0,0-1.28,5.88c-.93,6.42-9.07,9.88-14.68,8.34-6.76-1.86-9.27-8.32-8.34-14.68a69.92,69.92,0,0,1,2.74-11.44,106,106,0,0,1,9.64-20.75,95.79,95.79,0,0,1,50.32-41.25c26.87-9.65,60-8.79,86.45,1.92a102.77,102.77,0,0,1,49.31,41.44c5,8.08,9.5,17.34,11.53,26.67A11.91,11.91,0,0,1,2684.38,934Z"/><path class="cls-46" d="M2782.16,1142.9H2397.62A28.76,28.76,0,0,1,2370,1106l48.4-164.26a28.76,28.76,0,0,1,27.48-20.63l224.49-.84,46.19-.18a28.76,28.76,0,0,1,26.85,18.17l65.46,165.28A28.76,28.76,0,0,1,2782.16,1142.9Z"/><path class="cls-44" d="M2732.72,1142.9h-335.1A28.76,28.76,0,0,1,2370,1106l48.4-164.26a28.76,28.76,0,0,1,27.48-20.63l224.49-.84a28.73,28.73,0,0,1,23.59,18l65.46,165.28A28.76,28.76,0,0,1,2732.72,1142.9Z"/><path class="cls-47" d="M2432.47,955l-16.94,55.72c-2.24,7.37,9.27,10.51,11.51,3.17L2444,958.21c2.24-7.37-9.28-10.51-11.51-3.17Z"/><path class="cls-47" d="M2410.09,1026.08l-6.32,20.81c-2.24,7.36,9.28,10.51,11.51,3.17l6.32-20.8c2.24-7.37-9.27-10.51-11.51-3.18Z"/><path class="cls-48" d="M2652.87,920.28a4.88,4.88,0,0,1-4.87,4.85H2514a4.86,4.86,0,0,1-4.85-4.85,4.88,4.88,0,0,1,4.85-4.87h134A4.88,4.88,0,0,1,2652.87,920.28Z"/><path class="cls-49" d="M2617.67,920.28a4.87,4.87,0,0,1-4.86,4.85H2514a4.86,4.86,0,0,1-4.85-4.85,4.88,4.88,0,0,1,4.85-4.87h98.79A4.88,4.88,0,0,1,2617.67,920.28Z"/><path class="cls-50" d="M2399.05,1711.54a39.13,39.13,0,0,1-65.45,29l0-.06a39.13,39.13,0,1,1,65.5-28.9Z"/><path class="cls-51" d="M2396.53,1709.43a39.14,39.14,0,0,1-62.93,31.07l0-.06a39.13,39.13,0,1,1,63-31Z"/><rect class="cls-3" x="2331.59" y="1707.14" width="56.02" height="10.37" rx="5.18"/><rect class="cls-3" x="2331.59" y="1707.14" width="56.02" height="10.37" rx="5.18" transform="translate(4071.92 -647.27) rotate(90)"/><path class="cls-3" d="M2477.53,1733.4a4,4,0,0,1-1.47,3.1,5,5,0,0,1-3.36,1.27,4.4,4.4,0,0,1-2.35-.69,4.28,4.28,0,0,1-1.69-2l-3.46-7.7h-22.11l-3.45,7.7a4.36,4.36,0,0,1-1.67,2,4.3,4.3,0,0,1-2.38.69,5.14,5.14,0,0,1-3.39-1.27,3.92,3.92,0,0,1-1.5-3.1,5.37,5.37,0,0,1,.52-2.09l17.61-37A5.19,5.19,0,0,1,2451,1692a6.24,6.24,0,0,1,6.2,0,5.78,5.78,0,0,1,2.22,2.35l17.61,37A5.37,5.37,0,0,1,2477.53,1733.4Zm-31-13.76h15.2l-7.57-17Z"/><path class="cls-3" d="M2484.37,1736.27a4.79,4.79,0,0,1-1.23-3.52v-36.46a4.31,4.31,0,0,1,4.76-4.76H2501a28.26,28.26,0,0,1,12.91,2.74,19,19,0,0,1,8.28,7.89,25,25,0,0,1,2.87,12.32,25.36,25.36,0,0,1-2.84,12.36,18.88,18.88,0,0,1-8.25,7.93,28.51,28.51,0,0,1-13,2.74H2487.9A4.8,4.8,0,0,1,2484.37,1736.27Zm30.59-21.79q0-14.73-14.67-14.73h-7v29.54h7Q2515,1729.29,2515,1714.48Z"/><path class="cls-3" d="M2534.13,1736.27a4.79,4.79,0,0,1-1.23-3.52v-36.46a4.31,4.31,0,0,1,4.76-4.76h13.11a28.26,28.26,0,0,1,12.91,2.74,19,19,0,0,1,8.28,7.89,25,25,0,0,1,2.87,12.32,25.36,25.36,0,0,1-2.84,12.36,18.88,18.88,0,0,1-8.25,7.93,28.51,28.51,0,0,1-13,2.74h-13.11A4.8,4.8,0,0,1,2534.13,1736.27Zm30.59-21.79q0-14.73-14.67-14.73h-7v29.54h7Q2564.72,1729.29,2564.72,1714.48Z"/><path class="cls-3" d="M2612.88,1736.46a4.88,4.88,0,0,1-1.4-3.65v-33h-10.56q-4.83,0-4.83-4.17t4.83-4.11h31.3q4.83,0,4.83,4.11t-4.83,4.17h-10.57v33a4.9,4.9,0,0,1-1.37,3.65,5,5,0,0,1-3.71,1.37A5,5,0,0,1,2612.88,1736.46Z"/><path class="cls-3" d="M2648,1735.19a19.63,19.63,0,0,1-7.79-8.22,29.81,29.81,0,0,1,0-25,19.44,19.44,0,0,1,7.79-8.19,26.13,26.13,0,0,1,23.81,0,19.32,19.32,0,0,1,7.79,8.19,29.81,29.81,0,0,1,0,25,19.51,19.51,0,0,1-7.79,8.22,25.89,25.89,0,0,1-23.81,0Zm20.94-9q3.3-4,3.29-11.68t-3.26-11.64a12.22,12.22,0,0,0-18.1,0q-3.22,4-3.22,11.64t3.26,11.68a10.93,10.93,0,0,0,9,4A11,11,0,0,0,2669,1726.16Z"/><path class="cls-3" d="M2717.59,1735.22a19.34,19.34,0,0,1-7.83-8.21,29.91,29.91,0,0,1,0-25,19.35,19.35,0,0,1,7.83-8.19,25.69,25.69,0,0,1,26.61,1.83,5,5,0,0,1,1.37,1.56,4.39,4.39,0,0,1,.39,2,4.55,4.55,0,0,1-.95,2.9,2.83,2.83,0,0,1-2.31,1.21,5.14,5.14,0,0,1-1.6-.23,5.79,5.79,0,0,1-1.53-.82,21.9,21.9,0,0,0-4.83-2.44,14.79,14.79,0,0,0-4.76-.75c-4.17,0-7.32,1.29-9.42,3.88s-3.17,6.45-3.17,11.57q0,15.52,12.59,15.53a13.72,13.72,0,0,0,4.56-.75,29.1,29.1,0,0,0,5-2.45,9,9,0,0,1,1.63-.81,4.3,4.3,0,0,1,1.5-.23,2.85,2.85,0,0,1,2.31,1.2,4.6,4.6,0,0,1,.95,2.91,4.21,4.21,0,0,1-.43,2,4.91,4.91,0,0,1-1.33,1.53,25.71,25.71,0,0,1-26.61,1.82Z"/><path class="cls-3" d="M2795.26,1733.4a4,4,0,0,1-1.47,3.1,5,5,0,0,1-3.35,1.27,4.37,4.37,0,0,1-2.35-.69,4.3,4.3,0,0,1-1.7-2l-3.45-7.7h-22.11l-3.46,7.7a4.4,4.4,0,0,1-1.66,2,4.32,4.32,0,0,1-2.38.69,5.12,5.12,0,0,1-3.39-1.27,3.9,3.9,0,0,1-1.51-3.1,5.23,5.23,0,0,1,.53-2.09l17.61-37a5.08,5.08,0,0,1,2.15-2.38,6.22,6.22,0,0,1,6.19,0,5.78,5.78,0,0,1,2.22,2.35l17.61,37A5.2,5.2,0,0,1,2795.26,1733.4Zm-31-13.76h15.2l-7.57-17Z"/><path class="cls-3" d="M2839.54,1733.85a3.68,3.68,0,0,1-1.46,3,5.29,5.29,0,0,1-3.43,1.18,5.36,5.36,0,0,1-2.41-.59,4.94,4.94,0,0,1-2-1.82l-8.61-12.79a7.75,7.75,0,0,0-2.34-2.44,6,6,0,0,0-3.13-.75h-5.29v13.17a5.09,5.09,0,0,1-1.33,3.72,4.85,4.85,0,0,1-3.62,1.37,4.73,4.73,0,0,1-5.09-5.09v-36.52a4.32,4.32,0,0,1,4.76-4.76H2822q8.09,0,12.23,3.55t4.14,10.27a13.28,13.28,0,0,1-2.94,8.81,14,14,0,0,1-8.28,4.63,8.53,8.53,0,0,1,3.49,1.53,13.28,13.28,0,0,1,3,3.29l5,7.44A5,5,0,0,1,2839.54,1733.85Zm-12.71-23.44a5.73,5.73,0,0,0,2-4.8q0-3.31-2-4.82t-6.33-1.5h-9.72v12.65h9.72Q2824.87,1711.94,2826.83,1710.41Z"/><path class="cls-3" d="M2857.32,1736.46a4.85,4.85,0,0,1-1.41-3.65v-33h-10.56q-4.83,0-4.83-4.17t4.83-4.11h31.3q4.83,0,4.83,4.11t-4.83,4.17h-10.56v33a4.94,4.94,0,0,1-1.37,3.65,5.68,5.68,0,0,1-7.4,0Z"/><rect class="cls-52" x="2823.14" y="673.68" width="111.7" height="19.89" rx="9.94"/><rect class="cls-52" x="2229.92" y="673.68" width="71.26" height="7.37" rx="3.69"/><rect class="cls-52" x="2229.92" y="683.68" width="71.26" height="7.37" rx="3.69"/><rect class="cls-52" x="2229.92" y="693.57" width="71.26" height="7.37" rx="3.69"/><rect class="cls-52" x="2887.2" y="637.88" width="6.37" height="17.34" rx="3.03"/><rect class="cls-52" x="2897.9" y="629.78" width="5.53" height="25.44" rx="2.63"/><rect class="cls-52" x="2908.96" y="625.37" width="5.53" height="29.86" rx="2.63"/><rect class="cls-52" x="2920.02" y="621.02" width="5.53" height="34.21" rx="2.63"/><path class="cls-53" d="M1629.44,850.22l85.82-32.83s59.32,24.77,76,127.29,4.61,155.52,36.28,182.59,3.46,118.65-9.21,157.82,23,58.75,23,58.75-58.18,2.88-73.73-33.41-20.16-61.63-50.68-72-46.66-76-31.68-121.53S1691.64,875,1629.44,850.22Z"/><path class="cls-54" d="M1548.8,840.43s-66.24-5.19-74.88,81.21,49,215.42,27.07,252.86,125,38.59,125,38.59L1615,1068.52Z"/><path class="cls-55" d="M1609.13,1124.82v41.47L1552.61,1152s29.31,81.64,82.44,89.42,99.79-50.54,99.79-50.54l-41.47-10.37-1.3-67.39Z"/><path class="cls-55" d="M1699.13,1113.45l-6.91,74.3s-1.73,23,5.76,35.71h0l-38.59-32.83,5.76-47.23,10.36-21.89Z"/><path class="cls-56" d="M1736.48,1056.14c-3.34,42-30.36,61.6-53.92,70.9a134,134,0,0,1-29.44,7.72c-29.19,4.31-45,0-70.87-13.83-6.86-3.66-13.41-14-19.36-27.27-1-2.27-2-4.62-3-7-8.61-21.28-15.72-47.64-20.14-66q-.88-3.72-1.64-7c-2.17-9.39-3.37-15.42-3.37-15.42s-25-127.87,40-146c25.33-7.07,46.42-8.11,63.87-5.53,57.29,8.41,75.35,55.64,75.35,55.64S1741.48,993.07,1736.48,1056.14Z"/><path class="cls-53" d="M1551.68,934.31s61,72.58,190.65,48.39c0,0,62.21-193.53-108.86-184.89,0,0-70.85-1.73-95,50.11,0,0-39.74-12.1-53.57,50.11s-3.45,122.68,31.11,136.51S1551.68,934.31,1551.68,934.31Z"/><polygon class="cls-57" points="1578.03 1619.88 1565.07 1673.02 1777.61 1682.09 1733.55 1619.88 1578.03 1619.88"/><polygon class="cls-58" points="1578.03 1619.88 1565.07 1673.02 1777.61 1682.09 1733.55 1619.88 1578.03 1619.88"/><path class="cls-59" d="M1555.24,1148.37s26.79,85.45,82.9,85.45,103.31-51,103.31-51,92.3-26.38,117.8,4.23,227.84,272.54,130.91,347.79-162,51-162,51S1733.8,1644.5,1642,1644.5s-107.13-31.88-94.38-47.19l-5-31.08a83.41,83.41,0,0,0-4.16-15.84l-30.4-81.89-10.2-3.83s-74,195.14-193.87,141.57,90.56-424.71,90.56-424.71S1446.83,1073.12,1555.24,1148.37Z"/><path class="cls-60" d="M1292.48,1464.8s15.56-44.93,39.75-62.21,82.94-41.47,82.94-41.47Z"/><path class="cls-61" d="M1907.64,1394l-93.31-35.42.57,18.72-39.16-24.19,35.13-97.35S1883.45,1321.38,1907.64,1394Z"/><path class="cls-61" d="M1689.48,1221.15s4.75,24.63,21.6,29.38,37.58,22,40.18,41.47,26.35,38.45,39.74,41.9-18.58-81.64-18.58-81.64l-46.22-32-24.62-5.61Z"/><path class="cls-53" d="M1841.4,1343.84s-57.5,2.58-73.73-33.41c-14-31.16-19.07-57.92-50.68-72-27.32-12.18-44.26-66.84-34.43-111.39,23.56-9.3,50.59-28.92,53.92-70.9,1.85-23.44-.78-50.7-4.83-75.7A669.11,669.11,0,0,0,1714,902.35s-18.06-47.23-75.35-55.64l76.64-29.32s59.32,24.76,76,127.3,10.22,150.07,36.29,182.58c42.06,52.42,17.86,102.52-9.21,157.82C1800.25,1322.07,1841.4,1343.84,1841.4,1343.84Z"/><path class="cls-62" d="M1841.4,1343.84s-57.5,2.58-73.73-33.41c-14-31.16-19.07-57.92-50.68-72-27.32-12.18-44.26-66.84-34.43-111.39,23.56-9.3,50.59-28.92,53.92-70.9,1.85-23.44-.78-50.7-4.83-75.7,6.63-6.05,19.75-14.51,34.73-5.52,21.59,13,26.78,72.58-8.21,85.11,0,0-10.8,49.68-33.7,67.82s-27.65,74.73,10.81,92.44,45.79,37.58,47.08,65.66S1814,1340,1841.4,1343.84Z"/><path class="cls-56" d="M1724.83,992.63s2.1-22.35,25.06-19.87c36,3.89,20.3,106.7-20.31,76.9Z"/><path class="cls-56" d="M1815.48,1370.91,1721,1324l-31.11-66.1s-65.08-53.42-77.75-71.85c0,0-16.13,4.61,0,27.07s37.43,42.05,37.43,42.05l-33.82,38.92a34,34,0,0,0-8.38,23.35c.34,10.77,2.57,23.63,7.65,28.16,9.21,8.21,27.21,12.24,34.7,4.75,0,0,10.22,28.65,21.74,32.69s38,.57,38,.57l90.43,65.67Z"/><path class="cls-61" d="M1808.57,1391.36s6.91-8.93,5.76-32.83C1814.33,1358.53,1822.68,1384.45,1808.57,1391.36Z"/><path class="cls-57" d="M1764.65,1494.17l-55.73-138.67s70-32.4,176.25,76.47S2099,1723.56,2077,1820.76s-200.88,121.82-200.88,121.82S1359,1975,1309.76,1890.74s-18.14-202.17,137.38-219,270.85-1.3,270.85-1.3Z"/><path class="cls-63" d="M1530.08,1722.26s-119.23-18.14-169.77,35c0,0,13-33.69,38.88-40.17,0,0-37.59,6.48-67.4,18.14C1331.79,1735.22,1381,1674.31,1530.08,1722.26Z"/><path class="cls-64" d="M1769.83,1815.57,1959,1858.34s13-54.43,50.55-50.54,92,68.68,97.19,71.27,54.43,5.19,68.69,15.56,37.58,13,41.47,19.44,1.3,22-7.78,22-167.17,11.66-230.68-1.3l-235.86,15.55S1658.38,1827.24,1769.83,1815.57Z"/><path class="cls-29" d="M1823.39,1951.65s-254,64.79-394,40.18c-23.68-4.17-46-15.09-65.62-30.34-96.31-74.86-126.66-254.12,74.69-250.89,0,0,145.16,10.36,353.8,81.64,0,0,23.38,37,31.52,89A210.89,210.89,0,0,1,1823.39,1951.65Z"/><path class="cls-65" d="M1823.39,1951.65s-254,64.79-394,40.18c-23.68-4.17-46-15.09-65.62-30.34,217.9,29.11,420.5-61.3,460-80.29A210.89,210.89,0,0,1,1823.39,1951.65Z"/><path class="cls-56" d="M1813.18,1808.15c3.47,4.26,104.43,137.13,104.43,137.13s25.12,186.28,29.48,194.55,20.72,13.85,33.51,3.45,11.78-13.12,26.75-19.4,30.66-32,34-39.48,7.78-12.23,14.79-29.75-63.94-138.17-63.94-138.17L1935,1751.64Z"/><path class="cls-29" d="M1964.9,1752.48c-.29,26.59-3.26,42.35-3.26,42.35-48,44.07-134.79,46.66-134.79,46.66-76.46-9.07-193.1-184-206-316.21-4.33-44.19,3.64-77.51,16.18-102.3h0c25-49.37,68-64.87,68-64.87,143.86-36.29,200.88,140,238.46,256.6A437.37,437.37,0,0,1,1964.9,1752.48Z"/><path class="cls-66" d="M1964.9,1752.48c-.29,26.59-3.26,42.35-3.26,42.35-48,44.07-134.79,46.66-134.79,46.66-76.46-9.07-193.1-184-206-316.21-4.33-44.19,3.64-77.51,16.18-102.3-.7,50.49,13,128.62,82.31,213.75C1794.39,1729,1898.28,1749.75,1964.9,1752.48Z"/><path class="cls-67" d="M1458.37,1136.49l-19.85-319.1s160.68-120.13,322-41.9c143.67,69.64,174.35,251.24,174.35,251.24L1599.2,1291.14Z"/><polygon class="cls-68" points="1598.91 1290.27 1601.21 1283.65 1561.18 1115.17 1558.3 1121.8 1598.91 1290.27"/><polygon class="cls-69" points="1473.06 1234.12 1451.46 1143.4 1558.3 1121.8 1599.2 1291.14 1529.21 1305.83 1473.06 1234.12"/><polygon class="cls-68" points="1451.46 1143.4 1458.37 1136.48 1561.18 1115.17 1558.3 1121.8 1451.46 1143.4"/><path class="cls-56" d="M1600.06,1233.26c-16.74,10.87-25.38,16.88-25.9,17.25l17.26-6.89s12.09,7.78-18.15,25.92l-19,15.55s13.82,83.81-19.88,92.45l-48.38,62.2-.2-.21,0,0-58.52-61.11,4-3.85,47-45.4s-22.47-80.35-22.47-88.13c0-5.27,2.39-30.42,3.93-46a2.12,2.12,0,0,1,4.17-.28l10.05,42.88s20.73-30.24,25.92-32,97.63-15.55,104.55-13.82S1617.34,1222,1600.06,1233.26Z"/><path class="cls-56" d="M1485.81,1439.53l-9.23,6.81c-22.75-22.42-40.67-49.2-51.24-66.78l5.92-5-4,3.85,58.52,61.11Z"/><path class="cls-70" d="M1414.75,1360.69q8.84,7,16.51,13.86l-5.92,5C1418.66,1368.46,1414.92,1361,1414.75,1360.69Z"/><path class="cls-70" d="M1497.85,1464.67a195.86,195.86,0,0,1-21.27-18.33l9.23-6.81C1494.84,1454.94,1497.85,1464.67,1497.85,1464.67Z"/><path class="cls-54" d="M1768.1,1080.76c-.25,5.3-.72,10.6-1.35,15.88s-1.46,10.53-2.57,15.74a90.33,90.33,0,0,1-4.56,15.31c-1,2.49-2.21,4.84-3.21,7.29s-2,4.92-2.74,7.44a83.41,83.41,0,0,0-3.45,15.42,60.53,60.53,0,0,0,.13,15.74,46.75,46.75,0,0,0,1.77,7.66,42.91,42.91,0,0,0,3,7.25,45.8,45.8,0,0,0,4.22,6.62,48.46,48.46,0,0,0,5.3,5.79,59,59,0,0,0,12.82,9.1c1.18.61,2.34,1.18,3.53,1.82l1.77,1a11.83,11.83,0,0,1,1.74,1l1.66,1.16c.27.2.56.38.82.6l.76.67,1.51,1.36c.5.45.92,1,1.38,1.49s.93,1,1.31,1.55l1.17,1.66.57.84.49.89,1,1.78c.3.6.53,1.23.81,1.85s.57,1.23.75,1.88c.39,1.29.89,2.55,1.15,3.87a67.31,67.31,0,0,1,1.73,15.92c0,10.68-1.4,21.24-1.87,31.83-.14,2.65-.17,5.3-.11,8,0,1.32.14,2.64.21,4s.25,2.64.52,3.94l.37,1.94c.16.65.35,1.28.53,1.92l.27.95.35.93c.25.61.47,1.24.75,1.84a21.78,21.78,0,0,0,4.64,6.39,22.15,22.15,0,0,1-4.79-6.32c-.29-.6-.52-1.23-.78-1.84l-.38-.93-.29-1c-.18-.64-.39-1.28-.56-1.92l-.42-2c-.3-1.3-.4-2.63-.6-3.95s-.25-2.65-.29-4c-.12-2.66-.14-5.33-.05-8,.34-10.63,1.66-21.21,1.51-31.8a69,69,0,0,0-1.82-15.66c-.26-1.29-.75-2.51-1.13-3.76-.18-.63-.5-1.21-.74-1.82s-.49-1.21-.79-1.79l-.94-1.71-.48-.85-.55-.8-1.13-1.6c-.37-.53-.85-1-1.27-1.48s-.84-1-1.32-1.43l-1.46-1.29-.73-.65c-.25-.21-.53-.38-.79-.57l-1.61-1.12c-2.19-1.38-4.55-2.53-7-3.76a59.91,59.91,0,0,1-13.12-9.24,51.86,51.86,0,0,1-5.42-6,47.5,47.5,0,0,1-4.3-6.83,43.91,43.91,0,0,1-3.07-7.45,48.16,48.16,0,0,1-1.77-7.85c-1.53-10.67.14-21.55,3.53-31.64.83-2.54,1.82-5,2.85-7.48s2.27-4.84,3.3-7.25a91.21,91.21,0,0,0,4.69-15.14c1.2-5.16,2.12-10.39,2.87-15.64S1767.75,1086.06,1768.1,1080.76Z"/><path class="cls-54" d="M1785,994.79a153.07,153.07,0,0,0-.57-21.09,162.88,162.88,0,0,0-3.26-20.85,114.17,114.17,0,0,0-6.41-20.05,79.3,79.3,0,0,0-4.79-9.36,60.54,60.54,0,0,0-6.12-8.53,44.62,44.62,0,0,0-16.71-12.33,47.81,47.81,0,0,0-20.54-3.28,56.91,56.91,0,0,1-21-2.94,52.4,52.4,0,0,1-18-11.06,110.66,110.66,0,0,1-13.86-16c-4.18-5.68-8.14-11.5-12.43-17.07a92.34,92.34,0,0,0-14.33-15.29,53.65,53.65,0,0,0-18.25-9.92,55.1,55.1,0,0,0-20.64-2.44,62.11,62.11,0,0,0-20.19,5.08,84.4,84.4,0,0,0-18,10.68,95.48,95.48,0,0,0-15.15,14.44l-.81-.82a79.65,79.65,0,0,1,14.13-7.84,67,67,0,0,1,15.45-4.65,45.18,45.18,0,0,1,16.15.09,36.39,36.39,0,0,1,14.76,6.51,34.7,34.7,0,0,1,10,12.64,87.85,87.85,0,0,1,5.46,15.15c1.46,5.16,2.73,10.36,4.31,15.45a60.25,60.25,0,0,0,6.33,14.58A28.83,28.83,0,0,0,1652,916.48c4.72,2.44,10.08,3.24,15.34,4,10.58,1.44,21.3,1.41,32,2a120.61,120.61,0,0,1,16,1.79,55.19,55.19,0,0,1,15.2,5.12,45.2,45.2,0,0,1,12.63,9.82,61.74,61.74,0,0,1,9,13.24,61.22,61.22,0,0,0-9.1-13.15,44.87,44.87,0,0,0-12.65-9.68,54.63,54.63,0,0,0-15.15-5A118,118,0,0,0,1699.3,923c-10.67-.49-21.41-.4-32.06-1.84-2.66-.35-5.31-.78-7.94-1.36a33,33,0,0,1-7.64-2.67,29.69,29.69,0,0,1-11.81-10.86,61.11,61.11,0,0,1-6.46-14.75c-1.61-5.12-2.9-10.32-4.36-15.46a87.84,87.84,0,0,0-5.45-15,33.84,33.84,0,0,0-9.75-12.28,35.55,35.55,0,0,0-14.38-6.28,44,44,0,0,0-15.77,0,65.35,65.35,0,0,0-15.19,4.63,77.71,77.71,0,0,0-13.87,7.74l-3.57,2.53,2.76-3.35a96.45,96.45,0,0,1,15.33-14.7,85,85,0,0,1,18.22-10.89,63.26,63.26,0,0,1,20.61-5.13,56.55,56.55,0,0,1,21.07,2.56,54.79,54.79,0,0,1,18.6,10.18,93.58,93.58,0,0,1,14.46,15.51c4.29,5.61,8.24,11.45,12.39,17.12a109.68,109.68,0,0,0,13.69,15.93,51.18,51.18,0,0,0,17.7,10.93,56,56,0,0,0,20.64,3,48.6,48.6,0,0,1,20.85,3.39,45.54,45.54,0,0,1,16.94,12.57,68.49,68.49,0,0,1,10.89,18.12,114,114,0,0,1,6.27,20.19,163.79,163.79,0,0,1,3.09,20.9A153.37,153.37,0,0,1,1785,994.79Z"/><path class="cls-71" d="M1709.31,991.48l5.13.15a4.71,4.71,0,0,0,4.85-4.71v-44a4.71,4.71,0,0,0-4.71-4.71h0a4.71,4.71,0,0,0-4.68,4.17l-5.13,43.86A4.71,4.71,0,0,0,1709.31,991.48Z"/><path class="cls-72" d="M1690.65,990.22l3.15.29c1.64.16,3.09-1.82,3.22-4.36L1699.1,944c.12-2.49-1.08-4.57-2.68-4.65h0c-1.48-.08-2.8,1.58-3.09,3.84l-5.24,41.84C1687.76,987.66,1689,990.06,1690.65,990.22Z"/><path class="cls-73" d="M1623.61,1067l.54,0,7.06-.73a1.57,1.57,0,0,0,1.22-1.81c-.07-.92-.77-1.66-1.48-1.53l-7.06.73c-2.06.22-4.08-.82-5.74-2.91a16,16,0,0,1-3.09-8.57l-.07-1c-.21-2.61.92-4.87,2.5-5,2.36-.24,4.45-1.84,5.9-4.48a16.57,16.57,0,0,0,1.74-9.1l-1.17-14.09c-.08-.93-.85-1.62-1.5-1.53a1.61,1.61,0,0,0-1.22,1.82l1.17,14.09a12.54,12.54,0,0,1-1.3,6.91,5.26,5.26,0,0,1-3.88,3c-3.09.32-5.31,4.21-5,8.66l.08,1a19.67,19.67,0,0,0,3.86,10.62C1618.31,1065.72,1620.92,1067.11,1623.61,1067Z"/><ellipse class="cls-74" cx="1698.85" cy="1032.27" rx="36.72" ry="33.46" transform="translate(-43.72 1988.9) rotate(-60.05)"/><path class="cls-75" d="M1657.38,1004.75c-.21,5.5,3.15,10.09,7.51,10.26s8.06-4.16,8.27-9.66-3.16-10.09-7.52-10.25S1657.58,999.25,1657.38,1004.75Z"/><path class="cls-75" d="M1670.07,1001a14.07,14.07,0,0,0,6.48-4.63s-1.79,4.74-3.52,6.69S1670.07,1001,1670.07,1001Z"/><path class="cls-74" d="M1570.91,1090.39a31.64,31.64,0,0,1-8,3.27c-1-2.27-2-4.62-3-7-8.61-21.28-15.72-47.64-20.14-66,15.45-4.41,33.2,3,42.33,18.9C1592.7,1057.94,1587.7,1080.72,1570.91,1090.39Z"/><path class="cls-75" d="M1586.78,1015.93c1.87,5.14.13,10.42-3.89,11.8s-8.79-1.69-10.65-6.83-.13-10.43,3.89-11.8S1584.91,1010.78,1586.78,1015.93Z"/><path class="cls-75" d="M1573.8,1015.93a14.06,14.06,0,0,1-7.46-2.57s3.11,4,5.32,5.35S1573.8,1015.93,1573.8,1015.93Z"/><path class="cls-76" d="M1685.06,978.2c-3.19.37-7.1-.49-10.93-1.17s-7.71-1.43-11.09-1.95-7.29-1-11.18-1.49-7.86-.88-10.74-2.18-3.59-3.65.31-5.88c3.67-2.18,12.6-3.79,23.81-2.07s19,5.95,21.7,9.11C1689.79,975.83,1688.13,977.87,1685.06,978.2Z"/><path class="cls-76" d="M1553.84,991.24c3-.08,6.49-1.53,9.9-2.8s6.86-2.61,9.89-3.64,6.56-2.14,10.08-3.17,7.12-2,9.52-3.82,2.6-4.32-1.45-6.06c-3.85-1.74-12.45-2.12-22.51,1.29s-16.46,8.94-18.3,12.61C1549,989.46,1550.92,991.35,1553.84,991.24Z"/><path class="cls-73" d="M1660.11,1077.3s-28,7.16-45.35,5.48c0,0,16.46,40,31.19,30S1660.11,1077.3,1660.11,1077.3Z"/><g class="cls-77"><g class="cls-78"><path class="cls-79" d="M2029.55,672.4H1822a20.07,20.07,0,0,0-20,20v87.48l-50.11,46.46,50.11-9.18v35.28a20.08,20.08,0,0,0,20,20h207.55a20.07,20.07,0,0,0,20-20v-160a20.06,20.06,0,0,0-20-20"/></g></g><path class="cls-80" d="M2023,667.85H1815.46a20.08,20.08,0,0,0-20,20v87.48l-50.11,46.46,50.11-9.19v35.29a20.08,20.08,0,0,0,20,20H2023a20.08,20.08,0,0,0,20-20v-160a20.08,20.08,0,0,0-20-20"/><path class="cls-81" d="M1957.63,721.61c-28.36.61-34.69,32.47-35.14,35-.44-2.5-6.8-33.83-35.13-35-25-1-33.45,21.35-32.09,35.14,4,40.37,49.25,63.41,63.06,69.54a9.83,9.83,0,0,0,8,0c13.86-6.11,59.44-29.15,63.43-69.54C1991.08,743,1983.28,721.05,1957.63,721.61Z"/><path class="cls-82" d="M3085.81,1000.55,3149.6,953a162.53,162.53,0,0,1,43.49-131.21c60.25-63.63,161.39-67.88,226.75-9.5a162.93,162.93,0,0,1,9.23,234.2c-61.21,64-163.7,67-228.59,6.73a162.3,162.3,0,0,1-36.91-50.79l-74.39,6.88A4.89,4.89,0,0,1,3085.81,1000.55Z"/><path class="cls-83" d="M3090.78,1007l63.79-47.52a162.5,162.5,0,0,1,43.49-131.2c60.25-63.63,161.39-67.89,226.75-9.51a162.93,162.93,0,0,1,9.23,234.2c-61.21,64-163.7,67-228.59,6.73a162.37,162.37,0,0,1-36.91-50.78l-74.39,6.88A4.89,4.89,0,0,1,3090.78,1007Z"/><path class="cls-84" d="M3417.75,939.19a100.31,100.31,0,1,0-98.63,102A100.3,100.3,0,0,0,3417.75,939.19Zm-15.59-7.08-6.53.11a7.57,7.57,0,0,0,.25,15.14l6.49-.11a85.29,85.29,0,0,1-75.94,78.28l-.1-6.27a7.57,7.57,0,0,0-15.14.25l.1,6.27a85.29,85.29,0,0,1-78.49-75.72l6.48-.11a7.57,7.57,0,1,0-.25-15.14l-6.52.11a85.28,85.28,0,0,1,76-78.75l.11,6.74a7.57,7.57,0,0,0,15.14-.25l-.11-6.74A85.29,85.29,0,0,1,3402.16,932.11Z"/><path class="cls-84" d="M3385.51,909.79l-59.4,26.29a2.17,2.17,0,0,1-.07.24,8.17,8.17,0,0,1-.71,1.49l14,44.92a5.68,5.68,0,0,1-10.85,3.35l-14-44.9a8.51,8.51,0,0,1,6.43-15.75,6.5,6.5,0,0,1,.61.25l59.4-26.28a5.68,5.68,0,1,1,4.59,10.39Z"/><path class="cls-85" d="M1689.67,711a5.68,5.68,0,1,1,11.36,0v13.35h13.36a5.68,5.68,0,0,1,0,11.36H1701v13.36a5.68,5.68,0,0,1-11.36,0V735.69h-13.36a5.68,5.68,0,1,1,0-11.36h13.36Z"/><path class="cls-85" d="M4070.59,1788.25a7,7,0,0,1,14,0v16.45H4101a7,7,0,1,1,0,14h-16.44v16.45a7,7,0,0,1-14,0v-16.45h-16.44a7,7,0,1,1,0-14h16.44Z"/><path class="cls-85" d="M3939.28,2048.88a7,7,0,1,1,14,0v16.45h16.44a7,7,0,1,1,0,14h-16.44v16.45a7,7,0,0,1-14,0v-16.45h-16.46a7,7,0,0,1,0-14h16.46Z"/><path class="cls-85" d="M1010.06,1302.48a7,7,0,1,1,14,0v16.45h16.46a7,7,0,0,1,0,14H1024v16.45a7,7,0,0,1-14,0v-16.45H993.61a7,7,0,1,1,0-14h16.45Z"/><path class="cls-85" d="M595.31,1782.88a5.73,5.73,0,0,1,11.45,0v13.47h13.47a5.73,5.73,0,0,1,0,11.45H606.76v13.47a5.73,5.73,0,1,1-11.45,0V1807.8H581.84a5.73,5.73,0,1,1,0-11.45h13.47Z"/><path class="cls-85" d="M2926.7,1123.77a8.68,8.68,0,0,1,17.36,0v20.4h20.41a8.68,8.68,0,0,1,0,17.36h-20.41v20.41a8.68,8.68,0,1,1-17.36,0v-20.41h-20.4a8.68,8.68,0,0,1,0-17.36h20.4Z"/><path class="cls-86" d="M771.51,1491.06c.39,51,95,197.84,95,197.84H879.8c18.8-29.86,82.1-154.41,81.76-198.73-.38-51-43.24-95.2-95.72-95S771.13,1440.1,771.51,1491.06Zm52.35-1c-.17-22.88,18.79-41.52,42.36-41.63s42.81,18.35,43,41.24-18.8,41.52-42.36,41.63S824,1513,823.86,1490.09Z"/><path class="cls-87" d="M789.23,1487.34c.38,50.41,90.57,201.56,90.57,201.56s87.9-152,87.52-202.39-40.56-91.08-89.74-90.85S788.85,1436.94,789.23,1487.34Zm49-.94c-.17-22.64,17.59-41.07,39.68-41.17s40.13,18.16,40.3,40.8-17.6,41.07-39.68,41.17S838.45,1509,838.28,1486.4Z"/><path class="cls-88" d="M789.23,1487.34c.38,50.41,90.57,201.56,90.57,201.56s87.9-152,87.52-202.39-40.56-91.08-89.74-90.85S788.85,1436.94,789.23,1487.34Zm49-.94c-.17-22.64,17.59-41.07,39.68-41.17s40.13,18.16,40.3,40.8-17.6,41.07-39.68,41.17S838.45,1509,838.28,1486.4Z"/></g></g></svg>